<?xml version="1.0" encoding="UTF-8"?>
<!DOCTYPE svg PUBLIC "-//W3C//DTD SVG 1.1//EN" "http://www.w3.org/Graphics/SVG/1.1/DTD/svg11.dtd">
<!-- Creator: CorelDRAW 2019 (64-Bit) -->
<svg xmlns="http://www.w3.org/2000/svg" xml:space="preserve" width="193.841mm" height="64.6195mm" version="1.1" style="shape-rendering:geometricPrecision; text-rendering:geometricPrecision; image-rendering:optimizeQuality; fill-rule:evenodd; clip-rule:evenodd"
viewBox="0 0 193.802 64.6066"
 xmlns:xlink="http://www.w3.org/1999/xlink"
 xmlns:xodm="http://www.corel.com/coreldraw/odm/2003">
 <defs>
  <style type="text/css">
   <![CDATA[
    .fil0 {fill:#065671}
   ]]>
  </style>
 </defs>
 <g id="Layer_x0020_1">
  <metadata id="CorelCorpID_0Corel-Layer"/>
  <path class="fil0" d="M186.1569 15.663c-2.4752,0 -4.272,-2.0316 -4.272,-4.5068 0,-2.4753 1.7644,-4.4738 4.2397,-4.4738 2.4753,0 4.3044,2.0311 4.3044,4.5028 0,2.4715 -1.7644,4.4778 -4.272,4.4778zm-11.629 1.8327l0 0 2.241 0 0 -12.6103 -2.241 0 0 12.6103zm-11.2534 0l0 0 8.832 0 0 -2.0352 -6.6275 0 0 -10.5751 -2.2046 0 0 12.6103zm-10.8821 -5.0189l0 0 2.136 -5.0151 2.2048 5.0151 -4.3407 0zm-4.3729 5.0189l0 0 2.2733 0 1.2867 -3.0631 5.9652 0 1.2556 3.0521 2.3379 0 -5.5251 -12.5993 -2.0661 0 -5.5277 12.6103zm-6.0689 0.0684l0 0 -5.2035 -12.6787 2.424 0 3.797 9.695 3.7632 -9.695 2.4065 0 -5.2532 12.6787 -1.9341 0zm44.174 0.1336l0 0c1.7497,0.0316 3.439,-0.6457 4.6841,-1.8769 1.2437,-1.2319 1.9393,-2.9137 1.9259,-4.6646 0.027,-1.745 -0.6594,-3.4258 -1.9017,-4.652 -1.2425,-1.2266 -2.9316,-1.8921 -4.6759,-1.8422 -1.7471,-0.0316 -3.4335,0.643 -4.6773,1.8706 -1.245,1.2277 -1.9408,2.9048 -1.9326,4.6526 -0.0257,1.7465 0.6607,3.4278 1.9017,4.6571 1.241,1.2288 2.9301,1.899 4.6758,1.8554zm-9.8212 30.8816l0 0c-2.3164,0 -3.8024,-1.4901 -3.8024,-4.4632 0,-6.2781 4.4633,-12.8879 8.9224,-12.8879 2.3122,0 3.6367,1.6524 3.6367,4.7916 0,5.1126 -3.6367,12.5595 -8.7566,12.5595zm-86.2338 -29.7412l0 0c2.4784,-0.0105 4.8489,-1.0121 6.584,-2.7823 1.7345,-1.7696 2.6887,-4.1603 2.6488,-6.6388 0,-3.4674 -2.807,-6.1119 -6.6062,-6.1119 -4.9574,0 -9.0889,4.2974 -9.255,9.2511 0,3.8029 2.4789,6.2818 6.6105,6.2818l0.018 0zm-56.0306 8.7566l0 0c6.9385,-12.2277 14.3749,-18.8376 19.8265,-18.8376 2.9731,0 4.2976,1.9843 4.2976,6.2781 -0.0363,3.7067 -0.6451,7.3859 -1.8044,10.9069 -7.4506,0.6604 -15.3812,1.6526 -22.3197,1.6526zm-20.4904 37.0119l0 0c3.9689,0 6.7759,-2.4784 8.9227,-8.0963 2.9731,-8.0967 5.2859,-13.7109 7.1046,-17.6798 7.4364,-1.1582 16.0273,-3.1393 23.6294,-4.6294 -4.6257,9.4207 -10.7414,18.1778 -10.7414,23.8133 0,3.9691 2.1652,6.1125 5.9501,6.1125 4.7913,0 8.2587,-4.1314 11.4017,-10.5756 3.1304,-6.7697 5.5126,-13.8606 7.104,-21.1471 1.6526,-0.1658 3.305,-0.3318 4.6257,-0.3318 3.4712,0 4.7917,0.992 4.7917,3.1387 0,5.1237 -6.4442,11.907 -6.4442,19.0043 0,3.799 2.1466,6.6062 6.6099,6.6062 4.1315,0 8.757,-2.3128 14.3747,-8.0963 0.9922,-0.9889 1.8041,-0.8264 1.8041,0.6636 0.1624,4.9543 3.1393,7.4327 7.2704,7.4327 2.8071,0 4.2934,-1.1546 4.9538,-3.4674 3.3375,-13.4038 6.6247,-20.1909 11.2503,-20.1909 1.8037,0 2.9762,0.9921 2.9762,2.807 0,4.1315 -4.2971,9.2549 -4.2971,14.0463 0,3.4673 2.1652,5.6182 5.7729,5.6182 4.7918,0 6.2781,-3.6372 7.1046,-7.1045 1.3203,-5.6178 3.6369,-15.367 9.5836,-15.367 1.6516,0 2.6435,0.8265 2.6435,2.4789 0,3.305 -3.9678,9.0852 -3.9678,14.5405 0,4.1278 2.4779,6.6067 7.104,6.6067 5.1239,0 9.583,-2.973 15.3665,-8.4252 0.4955,-0.4979 0.8264,-0.66 1.1549,-0.66 0.3285,0 0.6637,0.3282 0.9921,1.1548 2.1467,5.123 6.4443,7.9372 12.7233,7.9372 11.4014,0 20.4894,-11.5635 20.4894,-24.2858 0,-8.2622 -4.6247,-13.552 -12.3936,-13.552 -9.5831,0 -16.8539,8.2623 -20.1582,18.6719 -1.8036,3.6372 -4.2936,5.6177 -6.9384,5.6177 -1.9839,0 -3.1388,-1.1545 -3.1388,-3.1387 0,-4.2976 4.6246,-8.9233 4.6246,-14.7066 0,-4.1278 -2.4779,-6.4443 -6.1119,-6.4443 -7.9384,0 -12.559,10.4095 -16.6907,10.4095 -1.3207,0 -2.1474,-0.3285 -2.6415,-5.1198 -0.3318,-3.6372 -1.9843,-5.2897 -4.9574,-5.2897 -4.6256,0 -8.4285,4.1316 -12.2282,9.583 -0.4941,0.6641 -0.826,0.8265 -1.1545,0.8265 -0.6637,0 -0.9922,-0.4948 -1.1578,-1.4868 -0.1662,-0.9921 -0.3324,-2.4784 -0.8265,-3.7991 -0.8265,-2.1468 -2.6447,-3.6335 -4.6257,-3.6335 -1.6524,0 -2.8096,0.8248 -3.4711,2.4752l-3.9689 11.2392c-1.6271,4.4669 -5.5962,9.103 -9.5652,9.103 -1.9841,0 -2.8105,-1.1545 -2.8105,-3.1387 0,-4.1316 4.7954,-9.417 4.7954,-14.7066 0,-3.4674 -2.3164,-5.7729 -8.2623,-5.7729 -2.6453,0 -7.7686,0.4942 -13.8807,1.1546 0.3192,-2.5205 0.4843,-5.0584 0.4943,-7.5988 0,-11.4305 -3.7888,-17.2035 -11.2357,-17.2035 -11.564,0 -25.6177,13.2204 -36.0198,27.5947 -11.4017,-0.6636 -14.3743,-3.1389 -17.8454,-3.1389 -2.1472,0 -3.6337,1.4863 -3.6337,3.9653 0,5.7727 5.6178,10.0771 13.8807,11.2355 -1.5989,2.8343 -3.0337,5.7581 -4.2975,8.757 -1.8039,4.2934 -2.3127,6.9385 -2.3127,9.0851 0,4.2971 2.3127,7.1079 6.278,7.1079z"/>
 </g>
</svg>
