<svg width="72" height="72" viewBox="0 0 72 72" fill="none" xmlns="http://www.w3.org/2000/svg">
  <rect opacity="0.16" x="8" y="8" width="56" height="56" rx="16" fill="#38BDF8"/>
  <path d="M46.1603 21.75H25.8397C23.2598 21.75 21.1667 23.8188 21.1667 26.3721V45.6279C21.1667 48.1812 23.2598 50.25 25.8397 50.25H46.1603C48.7402 50.25 50.8333 48.1812 50.8333 45.6279V26.3721C50.8333 23.8188 48.7402 21.75 46.1603 21.75Z" stroke="#38BDF8" stroke-width="2.4"/>
  <path d="M30.1667 31.6666H41.8333" stroke="#38BDF8" stroke-width="2.4" stroke-linecap="round" stroke-linejoin="round"/>
  <path d="M30.1667 36.75H37.2083" stroke="#38BDF8" stroke-width="2.4" stroke-linecap="round" stroke-linejoin="round"/>
  <path d="M35.9998 44.5C33.4521 44.5 31.3748 42.4227 31.3748 39.875C31.3748 37.3273 33.4521 35.25 35.9998 35.25C38.5475 35.25 40.6248 37.3273 40.6248 39.875C40.6248 42.4227 38.5475 44.5 35.9998 44.5Z" fill="#38BDF8" fill-opacity="0.12" stroke="#38BDF8" stroke-width="2.4" stroke-linejoin="round"/>
  <path d="M42.3335 21.75V27.4167C42.3335 28.6937 43.3597 29.75 44.6635 29.75H50.8335" stroke="#38BDF8" stroke-width="2.4" stroke-linecap="round"/>
</svg>

